<?xml version="1.0" encoding="iso-8859-1"?>
<!-- Generator: Adobe Illustrator 16.0.0, SVG Export Plug-In . SVG Version: 6.00 Build 0)  -->
<!DOCTYPE svg PUBLIC "-//W3C//DTD SVG 1.1//EN" "http://www.w3.org/Graphics/SVG/1.1/DTD/svg11.dtd">
<svg version="1.1" id="Capa_1" xmlns="http://www.w3.org/2000/svg" x="0px"
     y="0px"
     width="79.536px" height="79.536px" viewBox="0 0 79.536 79.536" style="enable-background:new 0 0 79.536 79.536;"
     xml:space="preserve">
<g>
	<path style="fill:#010002;" d="M40.162,17.906C37.415,15.275,21.614,6.141,0,15.451c0,0.138,0,2.722,0,6.654v44.418h32.747
		c1.126,0.968,3.798,1.651,6.926,1.651c3.119,0,5.802-0.684,6.931-1.651h32.933V22.105c0-3.933,0-6.517,0-6.654
		C58.813,6.314,42.257,15.982,40.162,17.906z M37.229,63.349c0-1.75-15.372-11.981-33.125-0.818V19.216
		c3.516-2.014,8.246-3.249,13.463-3.249c10.864,0,19.662,3.562,19.662,10.175V63.349z M75.684,62.53
		c-17.751-11.163-33.108-0.932-33.108,0.818V26.146c0-6.612,8.792-10.175,19.646-10.175c5.22,0,9.952,1.235,13.463,3.249V62.53z"/>
</g>
    <g>
</g>
    <g>
</g>
    <g>
</g>
    <g>
</g>
    <g>
</g>
    <g>
</g>
    <g>
</g>
    <g>
</g>
    <g>
</g>
    <g>
</g>
    <g>
</g>
    <g>
</g>
    <g>
</g>
    <g>
</g>
    <g>
</g>
</svg>
